<?xml version="1.0" standalone="no"?>
<!DOCTYPE svg PUBLIC "-//W3C//DTD SVG 20010904//EN"
        "http://www.w3.org/TR/2001/REC-SVG-20010904/DTD/svg10.dtd">
<svg version="1.0" xmlns="http://www.w3.org/2000/svg"
     width="160.000000pt" height="160.000000pt" viewBox="0 0 160.000000 160.000000"
     preserveAspectRatio="xMidYMid meet">
    <metadata>
        Created by potrace 1.14, written by Peter Selinger 2001-2017
    </metadata>
    <g transform="translate(0.000000,160.000000) scale(0.100000,-0.100000)"
       fill="#000000" stroke="none">
        <path d="M715 1282 c-92 -20 -169 -58 -223 -109 -7 -7 -18 -13 -23 -13 -5 0
-9 -4 -9 -10 0 -5 -16 -30 -35 -56 -19 -25 -38 -56 -41 -70 -3 -13 -9 -24 -13
-24 -9 0 -11 -16 -16 -136 -4 -87 -1 -110 19 -167 31 -89 87 -161 166 -213 88
-58 142 -74 250 -74 121 0 213 37 298 118 91 89 135 192 134 315 -2 200 -116
361 -299 421 -50 17 -168 27 -208 18z"/>
    </g>
</svg>
